<?xml version="1.0" encoding="utf-8"?>
<!-- Generator: Adobe Illustrator 24.0.1, SVG Export Plug-In . SVG Version: 6.00 Build 0)  -->
<svg version="1.1"
	 id="svg3068" xmlns:cc="http://creativecommons.org/ns#" xmlns:dc="http://purl.org/dc/elements/1.1/" xmlns:inkscape="http://www.inkscape.org/namespaces/inkscape" xmlns:rdf="http://www.w3.org/1999/02/22-rdf-syntax-ns#" xmlns:sodipodi="http://sodipodi.sourceforge.net/DTD/sodipodi-0.dtd" xmlns:svg="http://www.w3.org/2000/svg"
	 xmlns="http://www.w3.org/2000/svg" xmlns:xlink="http://www.w3.org/1999/xlink" x="0px" y="0px" viewBox="0 0 783.3 268.9"
	 style="enable-background:new 0 0 783.3 268.9;" xml:space="preserve">
<style type="text/css">
	.st0{fill:#FBFBFB;stroke:#575756;stroke-width:0.25;stroke-miterlimit:10;}
	.st1{fill:none;stroke:url(#line776_1_);stroke-width:0.3;stroke-miterlimit:10;}
	.st2{fill:#FFFFFF;stroke:#575756;stroke-width:0.25;stroke-miterlimit:10;}
	.st3{fill:none;stroke:#575756;stroke-width:0.25;stroke-miterlimit:10;}
	.st4{fill:#575756;}
</style>
<path class="st0" d="M766.7,261.9h-750c-5.5,0-10-4.5-10-10v-235c0-5.5,4.5-10,10-10h750c5.5,0,10,4.5,10,10v235
	C776.7,257.5,772.2,261.9,766.7,261.9z"/>
<sodipodi:namedview  bordercolor="#666666" borderopacity="1" gridtolerance="10" guidetolerance="10" id="namedview3070" inkscape:current-layer="Layer_1-2" inkscape:cx="306.99455" inkscape:cy="130.80733" inkscape:pageopacity="0" inkscape:pageshadow="2" inkscape:window-height="905" inkscape:window-maximized="0" inkscape:window-width="1751" inkscape:window-x="100" inkscape:window-y="32" inkscape:zoom="1.8307089" objecttolerance="10" pagecolor="#ffffff" showgrid="false">
	</sodipodi:namedview>
<title  id="title332">Asset 5</title>
<linearGradient id="line776_1_" gradientUnits="userSpaceOnUse" x1="192.47" y1="239.25" x2="192.72" y2="239.25" gradientTransform="matrix(1 0 0 -1 0 240)">
	<stop  offset="0" style="stop-color:#BBA38A"/>
	<stop  offset="1" style="stop-color:#795649"/>
</linearGradient>
<line id="line776" class="st1" x1="192.6" y1="0.7" x2="192.6" y2="0.8"/>
<path id="rect2394" class="st2" d="M610.9,71.2h106.4c5.5,0,10,4.5,10,10v106.4c0,5.5-4.5,10-10,10H610.9c-5.5,0-10-4.5-10-10V81.2
	C600.9,75.7,605.4,71.2,610.9,71.2z"/>
<path id="rect2394_1_" class="st2" d="M444.5,71.2h106.4c5.5,0,10,4.5,10,10v106.4c0,5.5-4.5,10-10,10H444.5c-5.5,0-10-4.5-10-10
	V81.2C434.5,75.7,439,71.2,444.5,71.2z"/>
<path id="rect2392_1_" class="st2" d="M66.8,71.2h106.4c5.5,0,10,4.5,10,10v106.4c0,5.5-4.5,10-10,10H66.8c-5.5,0-10-4.5-10-10V81.2
	C56.8,75.7,61.3,71.2,66.8,71.2z"/>
<path id="rect2392_2_" class="st2" d="M233.2,71.2h106.4c5.5,0,10,4.5,10,10v106.4c0,5.5-4.5,10-10,10H233.2c-5.5,0-10-4.5-10-10
	V81.2C223.2,75.7,227.6,71.2,233.2,71.2z"/>
<line class="st3" x1="391.7" y1="61.5" x2="391.7" y2="17.2"/>
<line class="st3" x1="391.7" y1="250.8" x2="391.7" y2="206.6"/>
<path class="st4" d="M395,159.7h-6.9v-4h0.6v3.3h2.4v-2.9h0.6v2.9h3.3V159.7z"/>
<path class="st4" d="M391.5,148.3c0.6,0,1.1,0.1,1.6,0.3s0.8,0.4,1.1,0.7c0.3,0.3,0.5,0.6,0.7,1s0.2,0.8,0.2,1.2s-0.1,0.9-0.2,1.2
	c-0.2,0.4-0.4,0.7-0.7,1c-0.3,0.3-0.7,0.5-1.1,0.7c-0.5,0.2-1,0.3-1.6,0.3s-1.1-0.1-1.6-0.3s-0.8-0.4-1.1-0.7
	c-0.3-0.3-0.5-0.6-0.7-1s-0.2-0.8-0.2-1.2s0.1-0.9,0.2-1.2c0.2-0.4,0.4-0.7,0.7-1c0.3-0.3,0.7-0.5,1.1-0.7S390.9,148.3,391.5,148.3z
	 M391.5,149c-0.5,0-0.9,0.1-1.3,0.2c-0.4,0.1-0.7,0.3-0.9,0.5c-0.3,0.2-0.5,0.5-0.6,0.8s-0.2,0.7-0.2,1c0,0.4,0.1,0.7,0.2,1
	s0.3,0.6,0.6,0.8c0.3,0.2,0.6,0.4,0.9,0.5c0.4,0.1,0.8,0.2,1.3,0.2s0.9-0.1,1.3-0.2s0.7-0.3,0.9-0.5c0.3-0.2,0.5-0.5,0.6-0.8
	s0.2-0.7,0.2-1c0-0.4-0.1-0.7-0.2-1s-0.3-0.6-0.6-0.8c-0.3-0.2-0.6-0.4-0.9-0.5C392.4,149.1,392,149,391.5,149z"/>
<path class="st4" d="M394.4,142.8h0.6v3.9h-6.9V146h6.3V142.8z"/>
<path class="st4" d="M391.5,136.3c0.6,0,1.1,0.1,1.5,0.3s0.8,0.4,1.1,0.8c0.3,0.3,0.5,0.7,0.7,1.2s0.2,1,0.2,1.5c0,0.3,0,0.6,0,0.9
	c0,0.3-0.1,0.6-0.1,0.8h-6.7c-0.1-0.2-0.1-0.5-0.1-0.8s0-0.6,0-0.9c0-0.6,0.1-1.1,0.2-1.5c0.1-0.5,0.4-0.9,0.7-1.2
	c0.3-0.3,0.7-0.6,1.1-0.8C390.4,136.4,390.9,136.3,391.5,136.3z M394.4,141.1c0,0,0-0.1,0-0.3s0-0.4,0-0.8c0-0.5-0.1-0.9-0.2-1.3
	c-0.1-0.4-0.3-0.7-0.6-0.9c-0.3-0.3-0.6-0.4-0.9-0.6c-0.4-0.1-0.8-0.2-1.2-0.2s-0.9,0.1-1.2,0.2c-0.4,0.1-0.7,0.3-0.9,0.6
	c-0.3,0.3-0.4,0.6-0.6,0.9s-0.2,0.8-0.2,1.3c0,0.4,0,0.6,0,0.8s0,0.3,0,0.3H394.4z"/>
<path class="st4" d="M388.1,128v-0.7h6.9v0.7h-3.3v3.8h3.3v0.7h-6.9v-0.7h3V128H388.1z"/>
<path class="st4" d="M395,125.5h-6.9v-4h0.6v3.3h2.4v-3h0.6v3h2.8v-3.6h0.6v4.3C395.1,125.5,395,125.5,395,125.5z"/>
<path class="st4" d="M390.2,115.4c0.5,0,0.9,0.1,1.2,0.4s0.5,0.6,0.7,1.1c0.1-0.1,0.3-0.2,0.5-0.4c0.2-0.2,0.5-0.3,0.7-0.5
	c0.3-0.2,0.6-0.4,0.8-0.5s0.6-0.3,0.8-0.4v0.7c-0.3,0.1-0.5,0.3-0.8,0.5s-0.5,0.3-0.8,0.5s-0.5,0.3-0.7,0.5s-0.4,0.3-0.6,0.4
	c0,0.2,0,0.4,0,0.6v1.1h2.8v0.7H388c-0.1-0.2-0.1-0.5-0.1-0.8s0-0.6,0-0.9c0-1,0.2-1.7,0.5-2.2C388.9,115.6,389.4,115.4,390.2,115.4
	z M388.6,118.2c0,0.3,0,0.5,0,0.7s0,0.3,0,0.5h3v-0.9c0-0.3,0-0.6,0-0.9s-0.1-0.5-0.2-0.7s-0.3-0.4-0.4-0.5s-0.5-0.2-0.8-0.2
	s-0.6,0.1-0.8,0.2s-0.4,0.3-0.5,0.5s-0.2,0.4-0.2,0.7S388.6,117.9,388.6,118.2z"/>
<path class="st4" d="M395,113.8h-6.9v-4h0.6v3.3h2.4v-3h0.6v3h2.8v-3.6h0.6v4.3C395.1,113.8,395,113.8,395,113.8z"/>
<g>
	<path class="st4" d="M747.3,168c0-1.2,0.2-2.1,0.7-2.8c0.4-0.6,1.1-1,2.1-1c0.5,0,0.9,0.1,1.3,0.3s0.6,0.4,0.9,0.8
		c0.2,0.3,0.4,0.7,0.5,1.2s0.2,1,0.2,1.6v0.8h2.9v1.5h-8.2c-0.1-0.4-0.1-0.7-0.2-1.2C747.3,168.7,747.3,168.3,747.3,168z
		 M748.6,167.9c0,0.4,0,0.7,0,0.9h2.8v-0.7c0-0.7-0.1-1.3-0.3-1.7s-0.6-0.6-1.2-0.6c-0.3,0-0.5,0.1-0.7,0.2
		c-0.2,0.1-0.3,0.2-0.4,0.4c-0.1,0.2-0.2,0.4-0.2,0.7S748.6,167.6,748.6,167.9z"/>
	<path class="st4" d="M747.3,160.6c0-1.2,0.2-2.1,0.7-2.8c0.4-0.6,1.1-1,2-1c1.1,0,1.9,0.6,2.3,1.7c0.2-0.2,0.4-0.3,0.7-0.5
		s0.5-0.4,0.9-0.6c0.3-0.2,0.6-0.4,0.9-0.6s0.6-0.3,1-0.5v1.7c-0.3,0.2-0.6,0.3-0.9,0.5s-0.6,0.4-0.9,0.5c-0.3,0.2-0.5,0.4-0.8,0.5
		c-0.2,0.2-0.5,0.3-0.7,0.5c0,0.1,0,0.2,0,0.3s0,0.2,0,0.2v0.7h3.1v1.5h-8.2c-0.1-0.4-0.1-0.8-0.2-1.2
		C747.3,161.3,747.3,160.9,747.3,160.6z M748.6,160.5c0,0.3,0,0.6,0,0.9h2.7v-0.7c0-0.4,0-0.7-0.1-1c0-0.3-0.1-0.5-0.2-0.7
		c-0.1-0.2-0.2-0.3-0.4-0.4c-0.2-0.1-0.4-0.1-0.7-0.1s-0.5,0-0.6,0.1c-0.2,0.1-0.3,0.2-0.4,0.4c-0.1,0.2-0.2,0.4-0.2,0.6
		S748.6,160.2,748.6,160.5z"/>
	<path class="st4" d="M747.3,155.2v-1.5h8.3v1.5H747.3z"/>
	<path class="st4" d="M755.7,149.3c-1.3,0.6-2.7,1.2-4.1,1.7s-2.8,1.1-4.2,1.6v-1.7c0.6-0.2,1.1-0.4,1.7-0.6
		c0.6-0.2,1.2-0.4,1.7-0.6c0.6-0.2,1.1-0.4,1.6-0.6c0.5-0.2,1-0.4,1.5-0.6c-0.4-0.2-0.9-0.4-1.4-0.6c-0.5-0.2-1.1-0.4-1.6-0.6
		c-0.6-0.2-1.1-0.4-1.7-0.6c-0.6-0.2-1.2-0.4-1.7-0.6v-1.6c1.4,0.5,2.8,1,4.2,1.6s2.8,1.1,4.1,1.7L755.7,149.3L755.7,149.3z"/>
	<path class="st4" d="M755.7,138.6c-0.3,0.1-0.7,0.2-1,0.3s-0.6,0.2-1,0.3v3.5c0.3,0.1,0.7,0.2,1,0.3s0.6,0.2,1,0.3v1.6
		c-0.9-0.3-1.7-0.6-2.5-0.9s-1.5-0.6-2.1-0.8s-1.3-0.5-1.9-0.8c-0.6-0.3-1.2-0.5-1.8-0.8v-1.4c0.6-0.3,1.2-0.6,1.8-0.8
		c0.6-0.3,1.2-0.5,1.9-0.8s1.4-0.5,2.1-0.8c0.8-0.3,1.6-0.6,2.5-0.9V138.6z M748.9,141.1c0.4,0.2,0.9,0.4,1.5,0.6
		c0.6,0.2,1.3,0.5,2,0.7v-2.7c-0.7,0.3-1.4,0.5-2,0.7C749.9,140.7,749.4,140.9,748.9,141.1z"/>
	<path class="st4" d="M747.3,130.8h1.3v2.6h7v1.5h-7v2.6h-1.3V130.8z"/>
	<path class="st4" d="M755.7,129.7h-8.3v-5.3h1.3v3.8h2.1v-3.4h1.3v3.4h2.4V124h1.3L755.7,129.7L755.7,129.7z"/>
	<path class="st4" d="M755.7,114.9c-0.3,0.2-0.7,0.4-1,0.7c-0.4,0.3-0.7,0.6-1,0.9s-0.6,0.6-0.9,0.9c-0.3,0.3-0.6,0.6-0.8,0.9h3.7
		v1.5h-8.3v-1.5h3.4c-0.3-0.3-0.5-0.5-0.8-0.8s-0.6-0.6-0.9-0.9c-0.3-0.3-0.6-0.6-0.9-0.8s-0.5-0.5-0.8-0.7v-1.8
		c0.3,0.3,0.6,0.5,0.9,0.8s0.7,0.6,1,0.9s0.7,0.6,1,0.9s0.6,0.6,0.9,0.9c0.3-0.3,0.6-0.7,0.9-1s0.7-0.7,1.1-1s0.8-0.7,1.2-1
		s0.8-0.6,1.3-0.8L755.7,114.9L755.7,114.9z"/>
	<path class="st4" d="M755.7,112h-8.3v-5.3h1.3v3.8h2.1v-3.4h1.3v3.4h2.4v-4.1h1.3L755.7,112L755.7,112z"/>
	<path class="st4" d="M751,102.2c-0.6-0.4-1.2-0.7-1.8-1.1c-0.6-0.3-1.2-0.7-1.9-0.9v-1.7c0.8,0.4,1.7,0.9,2.5,1.4s1.7,1,2.5,1.6
		h3.3v1.5h-3.2c-0.9,0.6-1.7,1.1-2.5,1.6s-1.7,1-2.5,1.4v-1.8c0.6-0.3,1.2-0.6,1.9-0.9S750.4,102.6,751,102.2z"/>
</g>
<g>
	<path class="st4" d="M28.4,179.9c0-1.2,0.2-2.1,0.7-2.8c0.4-0.6,1.1-1,2.1-1c0.5,0,0.9,0.1,1.3,0.3s0.6,0.4,0.9,0.8
		c0.2,0.3,0.4,0.7,0.5,1.2s0.2,1,0.2,1.6v0.8H37v1.5h-8.2c-0.1-0.4-0.1-0.7-0.2-1.2C28.4,180.7,28.4,180.3,28.4,179.9z M29.7,179.8
		c0,0.4,0,0.7,0,0.9h2.8V180c0-0.7-0.1-1.3-0.3-1.7s-0.6-0.6-1.2-0.6c-0.3,0-0.5,0.1-0.7,0.2c-0.2,0.1-0.3,0.2-0.4,0.4
		s-0.2,0.4-0.2,0.7S29.7,179.5,29.7,179.8z"/>
	<path class="st4" d="M37,171.6c0,0.6-0.1,1.1-0.2,1.5c-0.2,0.4-0.4,0.7-0.7,1s-0.6,0.5-1,0.6s-0.8,0.2-1.3,0.2h-5.2v-1.5h5.1
		c0.4,0,0.7,0,1-0.1s0.5-0.2,0.7-0.4s0.3-0.3,0.4-0.6c0.1-0.2,0.1-0.5,0.1-0.7c0-0.3,0-0.5-0.1-0.7s-0.2-0.4-0.4-0.6
		c-0.2-0.2-0.4-0.3-0.7-0.4c-0.3-0.1-0.6-0.1-1-0.1h-5.1v-1.5h5.2c0.5,0,0.9,0.1,1.3,0.2c0.4,0.1,0.7,0.3,1,0.6s0.5,0.6,0.7,1
		C36.9,170.5,37,171,37,171.6z"/>
	<path class="st4" d="M36.9,163.9c0,0.4,0,0.9,0,1.3s-0.1,0.8-0.2,1.2h-8.1c0-0.2-0.1-0.4-0.1-0.6c0-0.2,0-0.4-0.1-0.6
		c0-0.2,0-0.4,0-0.6s0-0.4,0-0.6c0-0.5,0-1,0.1-1.4s0.2-0.8,0.4-1.1s0.4-0.6,0.7-0.7c0.3-0.2,0.6-0.3,1.1-0.3c0.4,0,0.7,0.1,1,0.3
		s0.5,0.5,0.7,0.8c0.2-0.5,0.4-0.9,0.7-1.1c0.3-0.2,0.7-0.4,1.2-0.4c0.9,0,1.5,0.3,1.9,0.9S36.9,162.6,36.9,163.9z M31.9,164.9v-1.1
		c0-0.6-0.1-1-0.2-1.4c-0.2-0.3-0.5-0.5-0.9-0.5s-0.7,0.2-0.9,0.5c-0.2,0.3-0.3,0.8-0.3,1.3c0,0.2,0,0.4,0,0.6c0,0.2,0,0.3,0,0.5
		L31.9,164.9L31.9,164.9z M33,164.9h2.5c0-0.2,0-0.3,0-0.5s0-0.4,0-0.5c0-0.3,0-0.6-0.1-0.9s-0.1-0.5-0.2-0.7
		c-0.1-0.2-0.2-0.4-0.4-0.5s-0.4-0.2-0.6-0.2c-0.5,0-0.8,0.2-1,0.5s-0.3,0.8-0.3,1.4L33,164.9L33,164.9z"/>
	<path class="st4" d="M35.5,153.2h1.3v5.3h-8.3V157h7V153.2z"/>
	<path class="st4" d="M28.5,152.1v-1.5h8.3v1.5H28.5z"/>
	<path class="st4" d="M37,144.9c0,0.6-0.1,1.2-0.3,1.7s-0.5,0.9-0.8,1.3c-0.4,0.3-0.8,0.6-1.4,0.8c-0.5,0.2-1.2,0.3-1.8,0.3
		c-0.7,0-1.3-0.1-1.8-0.3s-1-0.5-1.4-0.9s-0.7-0.8-0.8-1.3c-0.2-0.5-0.3-1-0.3-1.6c0-0.3,0-0.7,0.1-0.9c0.1-0.3,0.1-0.5,0.2-0.7
		s0.1-0.4,0.2-0.5s0.1-0.2,0.2-0.3l1.2,0.4c-0.1,0.2-0.2,0.5-0.3,0.8c-0.1,0.4-0.2,0.7-0.2,1.2c0,0.4,0.1,0.7,0.2,1s0.3,0.6,0.6,0.8
		s0.6,0.4,0.9,0.5c0.4,0.1,0.8,0.2,1.3,0.2c0.4,0,0.8,0,1.2-0.1s0.7-0.3,1-0.5s0.5-0.5,0.6-0.8s0.2-0.7,0.2-1.2s-0.1-1-0.2-1.3
		c-0.1-0.3-0.2-0.6-0.3-0.8l1.2-0.4c0.1,0.1,0.1,0.2,0.2,0.4c0.1,0.2,0.1,0.4,0.2,0.6c0.1,0.2,0.1,0.5,0.1,0.8
		C36.9,144.3,37,144.6,37,144.9z"/>
	<path class="st4" d="M36.8,132.6c-0.3,0.1-0.7,0.2-1,0.3s-0.6,0.2-1,0.3v3.5c0.3,0.1,0.7,0.2,1,0.3s0.6,0.2,1,0.3v1.6
		c-0.9-0.3-1.7-0.6-2.5-0.9s-1.5-0.6-2.1-0.8c-0.7-0.3-1.3-0.5-1.9-0.8s-1.2-0.5-1.8-0.8v-1.4c0.6-0.3,1.2-0.6,1.8-0.8
		c0.6-0.3,1.2-0.5,1.9-0.8c0.7-0.3,1.4-0.5,2.1-0.8c0.8-0.3,1.6-0.6,2.5-0.9V132.6z M30.1,135c0.4,0.2,0.9,0.4,1.5,0.6
		c0.6,0.2,1.3,0.5,2,0.7v-2.7c-0.7,0.3-1.4,0.5-2,0.7C31,134.7,30.5,134.9,30.1,135z"/>
	<path class="st4" d="M32.6,122.9c0.7,0,1.3,0.1,1.9,0.3s1,0.5,1.3,1c0.4,0.4,0.6,0.9,0.8,1.5s0.3,1.2,0.3,1.9c0,0.3,0,0.7,0,1.1
		c0,0.4-0.1,0.8-0.2,1.2h-8.1c-0.1-0.4-0.1-0.8-0.2-1.2c0-0.4,0-0.8,0-1.2c0-0.7,0.1-1.3,0.2-1.9c0.2-0.6,0.4-1.1,0.8-1.5
		c0.3-0.4,0.8-0.7,1.3-1C31.2,123,31.9,122.9,32.6,122.9z M35.5,128.4c0-0.1,0-0.2,0-0.3c0-0.1,0-0.3,0-0.6c0-1-0.3-1.8-0.8-2.3
		s-1.2-0.8-2.2-0.8c-0.9,0-1.7,0.2-2.2,0.7s-0.8,1.2-0.8,2.3c0,0.4,0,0.8,0,1H35.5z"/>
	<path class="st4" d="M32.6,114.2c0.7,0,1.3,0.1,1.9,0.3s1,0.5,1.3,1c0.4,0.4,0.6,0.9,0.8,1.5s0.3,1.2,0.3,1.9c0,0.3,0,0.7,0,1.1
		s-0.1,0.8-0.2,1.2h-8.1c-0.1-0.4-0.1-0.8-0.2-1.2c0-0.4,0-0.8,0-1.2c0-0.7,0.1-1.3,0.2-1.9c0.2-0.6,0.4-1.1,0.8-1.5
		c0.3-0.4,0.8-0.7,1.3-1C31.2,114.3,31.9,114.2,32.6,114.2z M35.5,119.7c0-0.1,0-0.2,0-0.3c0-0.1,0-0.3,0-0.6c0-1-0.3-1.8-0.8-2.3
		s-1.2-0.8-2.2-0.8c-0.9,0-1.7,0.2-2.2,0.7s-0.8,1.2-0.8,2.3c0,0.4,0,0.8,0,1C29.5,119.7,35.5,119.7,35.5,119.7z"/>
	<path class="st4" d="M28.4,110.2c0-1.2,0.2-2.1,0.7-2.8c0.4-0.6,1.1-1,2-1c1.1,0,1.9,0.6,2.3,1.7c0.2-0.2,0.4-0.3,0.7-0.5
		s0.5-0.4,0.9-0.6c0.3-0.2,0.6-0.4,0.9-0.6s0.6-0.3,1-0.5v1.7c-0.3,0.2-0.6,0.3-0.9,0.5s-0.6,0.4-0.9,0.5c-0.3,0.2-0.5,0.4-0.8,0.5
		c-0.2,0.2-0.5,0.3-0.7,0.5c0,0.1,0,0.2,0,0.3s0,0.2,0,0.2v0.7h3.1v1.5h-8.2c-0.1-0.4-0.1-0.8-0.2-1.2
		C28.4,110.9,28.4,110.5,28.4,110.2z M29.7,110.1c0,0.3,0,0.6,0,0.9h2.7v-0.7c0-0.4,0-0.7-0.1-1c0-0.3-0.1-0.5-0.2-0.7
		c-0.1-0.2-0.2-0.3-0.4-0.4c-0.2-0.1-0.4-0.1-0.7-0.1c-0.3,0-0.5,0-0.6,0.1c-0.2,0.1-0.3,0.2-0.4,0.4c-0.1,0.2-0.2,0.4-0.2,0.6
		S29.7,109.8,29.7,110.1z"/>
	<path class="st4" d="M36.8,104.8h-8.3v-5.3h1.3v3.8h2.1v-3.4h1.3v3.4h2.4v-4.1h1.3v5.6H36.8z"/>
	<path class="st4" d="M35.7,95.8c0-0.5-0.1-0.9-0.3-1.2c-0.2-0.2-0.4-0.4-0.8-0.4c-0.2,0-0.4,0-0.5,0.1s-0.3,0.2-0.4,0.4
		c-0.1,0.2-0.2,0.3-0.3,0.6c-0.1,0.2-0.2,0.5-0.3,0.8s-0.2,0.6-0.3,0.8s-0.3,0.5-0.5,0.7s-0.4,0.4-0.7,0.5s-0.6,0.2-0.9,0.2
		c-0.8,0-1.3-0.3-1.8-0.8c-0.4-0.5-0.6-1.2-0.6-2.1c0-0.5,0.1-1,0.2-1.4s0.2-0.7,0.4-1l1.2,0.5c-0.2,0.3-0.3,0.6-0.3,0.9
		c-0.1,0.3-0.1,0.7-0.1,1c0,0.4,0.1,0.7,0.3,1s0.4,0.3,0.7,0.3c0.2,0,0.3,0,0.5-0.1c0.1-0.1,0.2-0.2,0.4-0.3
		c0.1-0.1,0.2-0.3,0.3-0.5c0.1-0.2,0.2-0.4,0.3-0.6c0.1-0.4,0.3-0.7,0.4-1c0.1-0.3,0.3-0.6,0.5-0.8c0.2-0.2,0.4-0.4,0.7-0.5
		s0.6-0.2,1-0.2c0.8,0,1.3,0.3,1.7,0.8s0.6,1.3,0.6,2.3c0,0.3,0,0.7-0.1,0.9c0,0.3-0.1,0.5-0.2,0.8c-0.1,0.2-0.1,0.4-0.2,0.6
		c-0.1,0.2-0.1,0.3-0.2,0.4L35.1,98c0.1-0.2,0.2-0.5,0.4-0.9C35.6,96.7,35.7,96.3,35.7,95.8z"/>
	<path class="st4" d="M35.7,89.3c0-0.5-0.1-0.9-0.3-1.2c-0.2-0.2-0.4-0.4-0.8-0.4c-0.2,0-0.4,0-0.5,0.1s-0.3,0.2-0.4,0.4
		c-0.1,0.2-0.2,0.3-0.3,0.6c-0.1,0.2-0.2,0.5-0.3,0.8s-0.2,0.6-0.3,0.8s-0.3,0.5-0.5,0.7s-0.4,0.4-0.7,0.5s-0.6,0.2-0.9,0.2
		c-0.8,0-1.3-0.3-1.8-0.8c-0.4-0.5-0.6-1.2-0.6-2.1c0-0.5,0.1-1,0.2-1.4s0.2-0.7,0.4-1l1.2,0.5c-0.2,0.3-0.3,0.6-0.3,0.9
		c-0.1,0.3-0.1,0.7-0.1,1c0,0.4,0.1,0.7,0.3,1s0.4,0.3,0.7,0.3c0.2,0,0.3,0,0.5-0.1c0.1-0.1,0.2-0.2,0.4-0.3
		c0.1-0.1,0.2-0.3,0.3-0.5c0.1-0.2,0.2-0.4,0.3-0.6c0.1-0.4,0.3-0.7,0.4-1c0.1-0.3,0.3-0.6,0.5-0.8c0.2-0.2,0.4-0.4,0.7-0.5
		s0.6-0.2,1-0.2c0.8,0,1.3,0.3,1.7,0.8s0.6,1.3,0.6,2.3c0,0.3,0,0.7-0.1,0.9c0,0.3-0.1,0.5-0.2,0.8c-0.1,0.2-0.1,0.4-0.2,0.6
		c-0.1,0.2-0.1,0.3-0.2,0.4l-1.2-0.4c0.1-0.2,0.2-0.5,0.4-0.9C35.6,90.3,35.7,89.8,35.7,89.3z"/>
</g>
<path class="st2" d="M360,52.6H38.2c-5.5,0-10-4.5-10-10v-6.4c0-5.5,4.5-10,10-10H360c5.5,0,10,4.5,10,10v6.4
	C370,48.1,365.5,52.6,360,52.6z"/>
<path class="st2" d="M745.9,52.6H424.1c-5.5,0-10-4.5-10-10v-6.4c0-5.5,4.5-10,10-10h321.8c5.5,0,10,4.5,10,10v6.4
	C755.9,48.1,751.4,52.6,745.9,52.6z"/>
<path class="st2" d="M745.9,241.9H424.1c-5.5,0-10-4.5-10-10v-6.4c0-5.5,4.5-10,10-10h321.8c5.5,0,10,4.5,10,10v6.4
	C755.9,237.5,751.4,241.9,745.9,241.9z"/>
<path class="st2" d="M360,241.9H38.2c-5.5,0-10-4.5-10-10v-6.4c0-5.5,4.5-10,10-10H360c5.5,0,10,4.5,10,10v6.4
	C370,237.5,365.5,241.9,360,241.9z"/>
</svg>
