<?xml version="1.0" encoding="utf-8"?>
<!-- Generator: Adobe Illustrator 24.0.1, SVG Export Plug-In . SVG Version: 6.00 Build 0)  -->
<svg version="1.1"
	 id="svg3068" xmlns:cc="http://creativecommons.org/ns#" xmlns:dc="http://purl.org/dc/elements/1.1/" xmlns:inkscape="http://www.inkscape.org/namespaces/inkscape" xmlns:rdf="http://www.w3.org/1999/02/22-rdf-syntax-ns#" xmlns:sodipodi="http://sodipodi.sourceforge.net/DTD/sodipodi-0.dtd" xmlns:svg="http://www.w3.org/2000/svg"
	 xmlns="http://www.w3.org/2000/svg" xmlns:xlink="http://www.w3.org/1999/xlink" x="0px" y="0px" viewBox="0 0 783.3 268.9"
	 style="enable-background:new 0 0 783.3 268.9;" xml:space="preserve">
<style type="text/css">
	.st0{fill:#FBFBFB;stroke:#575756;stroke-width:0.25;stroke-miterlimit:10;}
	.st1{fill:#FCFCFC;}
	.st2{fill:#FFFFFF;}
	.st3{fill:#F9F9F9;}
	.st4{fill:#FEFEFE;}
	.st5{fill:#F8F7F7;}
	.st6{fill:#FDFDFD;}
	.st7{fill:#F3F3F3;}
	.st8{fill:#FAFAFA;}
	.st9{fill:#F6F6F6;}
	.st10{fill:#E8E7E7;}
	.st11{fill:#F1F1F1;}
	.st12{fill:#F2F2F2;}
	.st13{fill:#C2C1C1;}
	.st14{fill:#E4E4E3;}
	.st15{fill:#F0F0F0;}
	.st16{fill:#F5F5F5;}
	.st17{fill:#FBFBFB;}
	.st18{fill:#D1D1D1;}
	.st19{fill:#DEDEDE;}
	.st20{fill:#DCDCDC;}
	.st21{fill:#EAEAEA;}
	.st22{fill:#DFDFDF;}
	.st23{fill:#EFEEEE;}
	.st24{fill:#D6D7D7;}
	.st25{fill:#EEEDED;}
	.st26{fill:#ECECEC;}
	.st27{fill:#CFCECE;}
	.st28{fill:#DADADA;}
	.st29{fill:#C4C4C3;}
	.st30{fill:#BABABA;}
	.st31{fill:#E0E0E0;}
	.st32{fill:#D2D2D2;}
	.st33{fill:#E3E3E2;}
	.st34{fill:#EFEFEF;}
	.st35{fill:#CFCFCF;}
	.st36{fill:#D7D8D8;}
	.st37{fill:#CECDCC;}
	.st38{fill:#E2E1E1;}
	.st39{fill:#EBEBEB;}
	.st40{fill:#D3D3D3;}
	.st41{fill:#D8D8D8;}
	.st42{fill:#D0D0D0;}
	.st43{fill:#D9D9D9;}
	.st44{fill:#DBDBDB;}
	.st45{fill:#E1E1E1;}
	.st46{fill:#E5E5E4;}
	.st47{fill:#E9E9E9;}
	.st48{fill:none;stroke:url(#line776_1_);stroke-width:0.3;stroke-miterlimit:10;}
	.st49{fill:none;stroke:#575756;stroke-width:0.25;stroke-miterlimit:10;}
	.st50{fill:#FFFFFF;stroke:#575756;stroke-width:0.25;stroke-miterlimit:10;}
</style>
<path class="st0" d="M766.7,261.9h-750c-5.5,0-10-4.5-10-10v-235c0-5.5,4.5-10,10-10h750c5.5,0,10,4.5,10,10v235
	C776.7,257.5,772.2,261.9,766.7,261.9z"/>
<g>
	<g>
		<g>
			<g>
				<polygon class="st1" points="161.4,17.7 171.6,27.9 181.7,17.7 171.6,7.4 				"/>
				<polygon class="st2" points="171.1,27.4 181.2,37.6 191.3,27.4 181.2,17.2 				"/>
				<polygon class="st3" points="142.1,17.7 152.3,27.9 162.4,17.7 152.3,7.4 				"/>
				<polygon class="st1" points="151.8,27.4 161.9,37.6 172,27.4 161.9,17.2 				"/>
				<polygon class="st1" points="161.4,37.1 171.6,47.3 181.7,37.1 171.6,26.9 				"/>
				<polygon class="st4" points="171.1,46.8 181.2,57.1 191.3,46.8 181.2,36.6 				"/>
				<polygon class="st2" points="180.7,56.6 190.9,66.8 201,56.6 190.9,46.4 				"/>
				<polygon class="st3" points="122.8,17.7 133,27.9 143.1,17.7 133,7.4 				"/>
				<polygon class="st5" points="132.5,27.4 142.6,37.6 152.7,27.4 142.6,17.2 				"/>
				<polygon class="st3" points="142.1,37.1 152.3,47.3 162.4,37.1 152.3,26.9 				"/>
				<polygon class="st6" points="151.8,46.8 161.9,57.1 172,46.8 161.9,36.6 				"/>
				<polygon class="st6" points="161.4,56.6 171.6,66.8 181.7,56.6 171.6,46.4 				"/>
				<polygon class="st4" points="171.1,66.3 181.2,76.5 191.3,66.3 181.2,56.1 				"/>
				<polygon class="st7" points="103.5,17.7 113.7,27.9 123.8,17.7 113.7,7.4 				"/>
				<polygon class="st3" points="113.2,27.4 123.3,37.6 133.5,27.4 123.3,17.2 				"/>
				<polygon class="st3" points="122.8,37.1 133,47.3 143.1,37.1 133,26.9 				"/>
				<polygon class="st1" points="132.5,46.8 142.6,57.1 152.7,46.8 142.6,36.6 				"/>
				<polygon class="st6" points="142.1,56.6 152.3,66.8 162.4,56.6 152.3,46.4 				"/>
				<polygon class="st6" points="151.8,66.3 161.9,76.5 172,66.3 161.9,56.1 				"/>
				<polygon class="st6" points="161.4,76.1 171.6,86.3 181.7,76.1 171.6,65.8 				"/>
				<polygon class="st4" points="171.1,85.8 181.2,96 191.3,85.8 181.2,75.6 				"/>
				<polygon class="st7" points="84.2,17.7 94.4,27.9 104.5,17.7 94.4,7.4 				"/>
				<polygon class="st7" points="93.9,27.4 104,37.6 114.1,27.4 104,17.2 				"/>
				<polygon class="st7" points="103.5,37.1 113.7,47.3 123.8,37.1 113.7,26.9 				"/>
				<polygon class="st8" points="113.2,46.8 123.3,57.1 133.5,46.8 123.3,36.6 				"/>
				<polygon class="st9" points="122.8,56.6 133,66.8 143.1,56.6 133,46.4 				"/>
				<polygon class="st9" points="132.5,66.3 142.6,76.5 152.7,66.3 142.6,56.1 				"/>
				<polygon class="st6" points="142.1,76.1 152.3,86.3 162.4,76.1 152.3,65.8 				"/>
				<polygon class="st6" points="151.8,85.8 161.9,96 172,85.8 161.9,75.6 				"/>
				<polygon class="st6" points="161.4,95.5 171.6,105.7 181.7,95.5 171.6,85.3 				"/>
				<polygon class="st6" points="171.1,105.2 181.2,115.5 191.3,105.2 181.2,95 				"/>
				<polygon class="st2" points="180.7,115 190.9,125.2 201,115 190.9,104.8 				"/>
				<polygon class="st10" points="64.9,17.7 75.1,27.9 85.2,17.7 75.1,7.4 				"/>
				<polygon class="st11" points="74.6,27.4 84.7,37.6 94.9,27.4 84.7,17.2 				"/>
				<polygon class="st7" points="84.2,37.1 94.4,47.3 104.5,37.1 94.4,26.9 				"/>
				<polygon class="st7" points="93.9,46.8 104,57.1 114.1,46.8 104,36.6 				"/>
				<polygon class="st7" points="103.5,56.6 113.7,66.8 123.8,56.6 113.7,46.4 				"/>
				<polygon class="st12" points="113.2,66.3 123.3,76.5 133.5,66.3 123.3,56.1 				"/>
				<polygon class="st12" points="122.8,76.1 133,86.3 143.1,76.1 133,65.8 				"/>
				<polygon class="st8" points="132.5,85.8 142.6,96 152.7,85.8 142.6,75.6 				"/>
				<polygon class="st6" points="142.1,95.5 152.3,105.7 162.4,95.5 152.3,85.3 				"/>
				<polygon class="st6" points="151.8,105.2 161.9,115.5 172,105.2 161.9,95 				"/>
				<polygon class="st8" points="161.4,115 171.6,125.2 181.7,115 171.6,104.8 				"/>
				<polygon class="st6" points="171.1,124.7 181.2,134.9 191.3,124.7 181.2,114.5 				"/>
				<polygon class="st13" points="45.6,17.7 55.8,27.9 65.9,17.7 55.8,7.4 				"/>
				<polygon class="st10" points="55.3,27.4 65.4,37.6 75.5,27.4 65.4,17.2 				"/>
				<polygon class="st10" points="64.9,37.1 75.1,47.3 85.2,37.1 75.1,26.9 				"/>
				<polygon class="st10" points="74.6,46.8 84.7,57.1 94.9,46.8 84.7,36.6 				"/>
				<polygon class="st11" points="84.2,56.6 94.4,66.8 104.5,56.6 94.4,46.4 				"/>
				<polygon class="st14" points="93.9,66.3 104,76.5 114.1,66.3 104,56.1 				"/>
				<polygon class="st15" points="103.5,76.1 113.7,86.3 123.8,76.1 113.7,65.8 				"/>
				<polygon class="st16" points="113.2,85.8 123.3,96 133.5,85.8 123.3,75.6 				"/>
				<polygon class="st12" points="122.8,95.5 133,105.7 143.1,95.5 133,85.3 				"/>
				<polygon class="st5" points="132.5,105.2 142.6,115.5 152.7,105.2 142.6,95 				"/>
				<polygon class="st17" points="142.1,115 152.3,125.2 162.4,115 152.3,104.8 				"/>
				<polygon class="st3" points="151.8,124.7 161.9,134.9 172,124.7 161.9,114.5 				"/>
				<polygon class="st3" points="161.4,134.4 171.6,144.6 181.7,134.4 171.6,124.2 				"/>
				<polygon class="st4" points="171.1,144.2 181.2,154.4 191.3,144.2 181.2,133.9 				"/>
				<polygon class="st2" points="180.7,153.9 190.9,164.1 201,153.9 190.9,143.7 				"/>
				<polygon class="st14" points="26.3,17.7 36.5,27.9 46.6,17.7 36.5,7.4 				"/>
				<polygon class="st18" points="36,27.4 46.1,37.6 56.2,27.4 46.1,17.2 				"/>
				<polygon class="st13" points="45.6,37.1 55.8,47.3 65.9,37.1 55.8,26.9 				"/>
				<polygon class="st19" points="55.3,46.8 65.4,57.1 75.5,46.8 65.4,36.6 				"/>
				<polygon class="st20" points="64.9,56.6 75.1,66.8 85.2,56.6 75.1,46.4 				"/>
				<polygon class="st21" points="74.6,66.3 84.7,76.5 94.9,66.3 84.7,56.1 				"/>
				<polygon class="st14" points="84.2,76.1 94.4,86.3 104.5,76.1 94.4,65.8 				"/>
				<polygon class="st22" points="93.9,85.8 104,96 114.1,85.8 104,75.6 				"/>
				<polygon class="st10" points="103.5,95.5 113.7,105.7 123.8,95.5 113.7,85.3 				"/>
				<polygon class="st12" points="113.2,105.2 123.3,115.5 133.5,105.2 123.3,95 				"/>
				<polygon class="st23" points="122.8,115 133,125.2 143.1,115 133,104.8 				"/>
				<polygon class="st5" points="132.5,124.7 142.6,134.9 152.7,124.7 142.6,114.5 				"/>
				<polygon class="st5" points="142.1,134.4 152.3,144.6 162.4,134.4 152.3,124.2 				"/>
				<polygon class="st6" points="151.8,144.2 161.9,154.4 172,144.2 161.9,133.9 				"/>
				<polygon class="st6" points="161.4,153.9 171.6,164.1 181.7,153.9 171.6,143.7 				"/>
				<polygon class="st2" points="171.1,163.6 181.2,173.9 191.3,163.6 181.2,153.4 				"/>
				<polygon class="st14" points="7,17.7 17.2,27.9 27.3,17.7 17.2,7.4 				"/>
				<polygon class="st14" points="16.7,27.4 26.8,37.6 36.9,27.4 26.8,17.2 				"/>
				<polygon class="st14" points="26.3,37.1 36.5,47.3 46.6,37.1 36.5,26.9 				"/>
				<polygon class="st24" points="36,46.8 46.1,57.1 56.2,46.8 46.1,36.6 				"/>
				<polygon class="st19" points="45.6,56.6 55.8,66.8 65.9,56.6 55.8,46.4 				"/>
				<polygon class="st19" points="55.3,66.3 65.4,76.5 75.5,66.3 65.4,56.1 				"/>
				<polygon class="st19" points="64.9,76.1 75.1,86.3 85.2,76.1 75.1,65.8 				"/>
				<polygon class="st10" points="74.6,85.8 84.7,96 94.9,85.8 84.7,75.6 				"/>
				<polygon class="st25" points="84.2,95.5 94.4,105.7 104.5,95.5 94.4,85.3 				"/>
				<polygon class="st25" points="93.9,105.2 104,115.5 114.1,105.2 104,95 				"/>
				<polygon class="st26" points="103.5,115 113.7,125.2 123.8,115 113.7,104.8 				"/>
				<polygon class="st9" points="113.2,124.7 123.3,134.9 133.5,124.7 123.3,114.5 				"/>
				<polygon class="st9" points="122.8,134.4 133,144.6 143.1,134.4 133,124.2 				"/>
				<polygon class="st7" points="132.5,144.2 142.6,154.4 152.7,144.2 142.6,133.9 				"/>
				<polygon class="st25" points="142.1,153.9 152.3,164.1 162.4,153.9 152.3,143.7 				"/>
				<polygon class="st9" points="151.8,163.6 161.9,173.9 172,163.6 161.9,153.4 				"/>
				<polygon class="st9" points="161.4,173.4 171.6,183.6 181.7,173.4 171.6,163.2 				"/>
				<polygon class="st2" points="171.1,183.1 181.2,193.3 191.3,183.1 181.2,172.9 				"/>
				<polygon class="st14" points="7,37.1 17.2,47.3 27.3,37.1 17.2,26.9 				"/>
				<polygon class="st27" points="16.7,46.8 26.8,57.1 36.9,46.8 26.8,36.6 				"/>
				<polygon class="st28" points="26.3,56.6 36.5,66.8 46.6,56.6 36.5,46.4 				"/>
				<polygon class="st29" points="36,66.3 46.1,76.5 56.2,66.3 46.1,56.1 				"/>
				<polygon class="st30" points="45.6,76.1 55.8,86.3 65.9,76.1 55.8,65.8 				"/>
				<polygon class="st31" points="55.3,85.8 65.4,96 75.5,85.8 65.4,75.6 				"/>
				<polygon class="st19" points="64.9,95.5 75.1,105.7 85.2,95.5 75.1,85.3 				"/>
				<polygon class="st19" points="74.6,105.2 84.7,115.5 94.9,105.2 84.7,95 				"/>
				<polygon class="st25" points="84.2,115 94.4,125.2 104.5,115 94.4,104.8 				"/>
				<polygon class="st26" points="93.9,124.7 104,134.9 114.1,124.7 104,114.5 				"/>
				<polygon class="st15" points="103.5,134.4 113.7,144.6 123.8,134.4 113.7,124.2 				"/>
				<polygon class="st16" points="113.2,144.2 123.3,154.4 133.5,144.2 123.3,133.9 				"/>
				<polygon class="st26" points="122.8,153.9 133,164.1 143.1,153.9 133,143.7 				"/>
				<polygon class="st25" points="132.5,163.6 142.6,173.9 152.7,163.6 142.6,153.4 				"/>
				<polygon class="st26" points="142.1,173.4 152.3,183.6 162.4,173.4 152.3,163.2 				"/>
				<polygon class="st8" points="151.8,183.1 161.9,193.3 172,183.1 161.9,172.9 				"/>
				<polygon class="st1" points="161.4,192.8 171.6,203 181.7,192.8 171.6,182.6 				"/>
				<polygon class="st28" points="7,56.6 17.2,66.8 27.3,56.6 17.2,46.4 				"/>
				<polygon class="st32" points="16.7,66.3 26.8,76.5 36.9,66.3 26.8,56.1 				"/>
				<polygon class="st32" points="26.3,76.1 36.5,86.3 46.6,76.1 36.5,65.8 				"/>
				<polygon class="st13" points="36,85.8 46.1,96 56.2,85.8 46.1,75.6 				"/>
				<polygon class="st24" points="45.6,95.5 55.8,105.7 65.9,95.5 55.8,85.3 				"/>
				<polygon class="st19" points="55.3,105.2 65.4,115.5 75.5,105.2 65.4,95 				"/>
				<polygon class="st33" points="64.9,115 75.1,125.2 85.2,115 75.1,104.8 				"/>
				<polygon class="st33" points="74.6,124.7 84.7,134.9 94.9,124.7 84.7,114.5 				"/>
				<polygon class="st26" points="84.2,134.4 94.4,144.6 104.5,134.4 94.4,124.2 				"/>
				<polygon class="st34" points="93.9,144.2 104,154.4 114.1,144.2 104,133.9 				"/>
				<polygon class="st23" points="103.5,153.9 113.7,164.1 123.8,153.9 113.7,143.7 				"/>
				<polygon class="st12" points="113.2,163.6 123.3,173.9 133.5,163.6 123.3,153.4 				"/>
				<polygon class="st12" points="122.8,173.4 133,183.6 143.1,173.4 133,163.2 				"/>
				<polygon class="st25" points="132.5,183.1 142.6,193.3 152.7,183.1 142.6,172.9 				"/>
				<polygon class="st34" points="142.1,192.8 152.3,203 162.4,192.8 152.3,182.6 				"/>
				<polygon class="st1" points="151.8,202.6 161.9,212.8 172,202.6 161.9,192.4 				"/>
				<polygon class="st2" points="161.4,212.3 171.6,222.5 181.7,212.3 171.6,202.1 				"/>
				<polygon class="st32" points="7,76.1 17.2,86.3 27.3,76.1 17.2,65.8 				"/>
				<polygon class="st35" points="16.7,85.8 26.8,96 36.9,85.8 26.8,75.6 				"/>
				<polygon class="st36" points="26.3,95.5 36.5,105.7 46.6,95.5 36.5,85.3 				"/>
				<polygon class="st37" points="36,105.2 46.1,115.5 56.2,105.2 46.1,95 				"/>
				<polygon class="st31" points="45.6,115 55.8,125.2 65.9,115 55.8,104.8 				"/>
				<polygon class="st38" points="55.3,124.7 65.4,134.9 75.5,124.7 65.4,114.5 				"/>
				<polygon class="st38" points="64.9,134.4 75.1,144.6 85.2,134.4 75.1,124.2 				"/>
				<polygon class="st26" points="74.6,144.2 84.7,154.4 94.9,144.2 84.7,133.9 				"/>
				<polygon class="st12" points="84.2,153.9 94.4,164.1 104.5,153.9 94.4,143.7 				"/>
				<polygon class="st25" points="93.9,163.6 104,173.9 114.1,163.6 104,153.4 				"/>
				<polygon class="st39" points="103.5,173.4 113.7,183.6 123.8,173.4 113.7,163.2 				"/>
				<polygon class="st26" points="113.2,183.1 123.3,193.3 133.5,183.1 123.3,172.9 				"/>
				<polygon class="st23" points="122.8,192.8 133,203 143.1,192.8 133,182.6 				"/>
				<polygon class="st12" points="132.5,202.6 142.6,212.8 152.7,202.6 142.6,192.4 				"/>
				<polygon class="st3" points="142.1,212.3 152.3,222.5 162.4,212.3 152.3,202.1 				"/>
				<polygon class="st36" points="7,95.5 17.2,105.7 27.3,95.5 17.2,85.3 				"/>
				<polygon class="st36" points="16.7,105.2 26.8,115.5 36.9,105.2 26.8,95 				"/>
				<polygon class="st28" points="26.3,115 36.5,125.2 46.6,115 36.5,104.8 				"/>
				<polygon class="st38" points="36,124.7 46.1,134.9 56.2,124.7 46.1,114.5 				"/>
				<polygon class="st20" points="45.6,134.4 55.8,144.6 65.9,134.4 55.8,124.2 				"/>
				<polygon class="st40" points="55.3,144.2 65.4,154.4 75.5,144.2 65.4,133.9 				"/>
				<polygon class="st32" points="64.9,153.9 75.1,164.1 85.2,153.9 75.1,143.7 				"/>
				<polygon class="st41" points="74.6,163.6 84.7,173.9 94.9,163.6 84.7,153.4 				"/>
				<polygon class="st25" points="84.2,173.4 94.4,183.6 104.5,173.4 94.4,163.2 				"/>
				<polygon class="st34" points="93.9,183.1 104,193.3 114.1,183.1 104,172.9 				"/>
				<polygon class="st42" points="103.5,192.8 113.7,203 123.8,192.8 113.7,182.6 				"/>
				<polygon class="st23" points="113.2,202.6 123.3,212.8 133.5,202.6 123.3,192.4 				"/>
				<polygon class="st15" points="122.8,212.3 133,222.5 143.1,212.3 133,202.1 				"/>
				<polygon class="st3" points="132.5,222 142.6,232.2 152.7,222 142.6,211.8 				"/>
				<polygon class="st28" points="7,115 17.2,125.2 27.3,115 17.2,104.8 				"/>
				<polygon class="st22" points="16.7,124.7 26.8,134.9 36.9,124.7 26.8,114.5 				"/>
				<polygon class="st22" points="26.3,134.4 36.5,144.6 46.6,134.4 36.5,124.2 				"/>
				<polygon class="st43" points="36,144.2 46.1,154.4 56.2,144.2 46.1,133.9 				"/>
				<polygon class="st44" points="45.6,153.9 55.8,164.1 65.9,153.9 55.8,143.7 				"/>
				<polygon class="st20" points="55.3,163.6 65.4,173.9 75.5,163.6 65.4,153.4 				"/>
				<polygon class="st20" points="64.9,173.4 75.1,183.6 85.2,173.4 75.1,163.2 				"/>
				<polygon class="st21" points="74.6,183.1 84.7,193.3 94.9,183.1 84.7,172.9 				"/>
				<polygon class="st11" points="84.2,192.8 94.4,203 104.5,192.8 94.4,182.6 				"/>
				<polygon class="st11" points="93.9,202.6 104,212.8 114.1,202.6 104,192.4 				"/>
				<polygon class="st38" points="103.5,212.3 113.7,222.5 123.8,212.3 113.7,202.1 				"/>
				<polygon class="st9" points="113.2,222 123.3,232.2 133.5,222 123.3,211.8 				"/>
				<polygon class="st6" points="122.8,231.7 133,242 143.1,231.7 133,221.5 				"/>
				<polygon class="st2" points="132.5,241.5 142.6,251.7 152.7,241.5 142.6,231.3 				"/>
				<polygon class="st22" points="7,134.4 17.2,144.6 27.3,134.4 17.2,124.2 				"/>
				<polygon class="st38" points="16.7,144.2 26.8,154.4 36.9,144.2 26.8,133.9 				"/>
				<polygon class="st38" points="26.3,153.9 36.5,164.1 46.6,153.9 36.5,143.7 				"/>
				<polygon class="st45" points="36,163.6 46.1,173.9 56.2,163.6 46.1,153.4 				"/>
				<polygon class="st20" points="45.6,173.4 55.8,183.6 65.9,173.4 55.8,163.2 				"/>
				<polygon class="st38" points="55.3,183.1 65.4,193.3 75.5,183.1 65.4,172.9 				"/>
				<polygon class="st38" points="64.9,192.8 75.1,203 85.2,192.8 75.1,182.6 				"/>
				<polygon class="st25" points="74.6,202.6 84.7,212.8 94.9,202.6 84.7,192.4 				"/>
				<polygon class="st43" points="84.2,212.3 94.4,222.5 104.5,212.3 94.4,202.1 				"/>
				<polygon class="st25" points="93.9,222 104,232.2 114.1,222 104,211.8 				"/>
				<polygon class="st17" points="103.5,231.7 113.7,242 123.8,231.7 113.7,221.5 				"/>
				<polygon class="st6" points="113.2,241.5 123.3,251.7 133.5,241.5 123.3,231.3 				"/>
				<polygon class="st4" points="122.8,251.2 133,261.4 143.1,251.2 133,241 				"/>
				<polygon class="st38" points="7,153.9 17.2,164.1 27.3,153.9 17.2,143.7 				"/>
				<polygon class="st25" points="16.7,163.6 26.8,173.9 36.9,163.6 26.8,153.4 				"/>
				<polygon class="st25" points="26.3,173.4 36.5,183.6 46.6,173.4 36.5,163.2 				"/>
				<polygon class="st46" points="36,183.1 46.1,193.3 56.2,183.1 46.1,172.9 				"/>
				<polygon class="st31" points="45.6,192.8 55.8,203 65.9,192.8 55.8,182.6 				"/>
				<polygon class="st38" points="55.3,202.6 65.4,212.8 75.5,202.6 65.4,192.4 				"/>
				<polygon class="st11" points="64.9,212.3 75.1,222.5 85.2,212.3 75.1,202.1 				"/>
				<polygon class="st12" points="74.6,222 84.7,232.2 94.9,222 84.7,211.8 				"/>
				<polygon class="st5" points="84.2,231.7 94.4,242 104.5,231.7 94.4,221.5 				"/>
				<polygon class="st5" points="93.9,241.5 104,251.7 114.1,241.5 104,231.3 				"/>
				<polygon class="st1" points="103.5,251.2 113.7,261.4 123.8,251.2 113.7,241 				"/>
				<polygon class="st25" points="7,173.4 17.2,183.6 27.3,173.4 17.2,163.2 				"/>
				<polygon class="st15" points="16.7,183.1 26.8,193.3 36.9,183.1 26.8,172.9 				"/>
				<polygon class="st6" points="26.3,192.8 36.5,203 46.6,192.8 36.5,182.6 				"/>
				<polygon class="st47" points="36,202.6 46.1,212.8 56.2,202.6 46.1,192.4 				"/>
				<polygon class="st8" points="45.6,212.3 55.8,222.5 65.9,212.3 55.8,202.1 				"/>
				<polygon class="st6" points="55.3,222 65.4,232.2 75.5,222 65.4,211.8 				"/>
				<polygon class="st4" points="64.9,231.7 75.1,242 85.2,231.7 75.1,221.5 				"/>
				<polygon class="st6" points="74.6,241.5 84.7,251.7 94.9,241.5 84.7,231.3 				"/>
				<polygon class="st6" points="84.2,251.2 94.4,261.4 104.5,251.2 94.4,241 				"/>
				<polygon class="st6" points="7,192.8 17.2,203 27.3,192.8 17.2,182.6 				"/>
				<polygon class="st6" points="16.7,202.6 26.8,212.8 36.9,202.6 26.8,192.4 				"/>
				<polygon class="st4" points="55.3,241.5 65.4,251.7 75.5,241.5 65.4,231.3 				"/>
			</g>
		</g>
	</g>
</g>
<g>
	<g>
		<g>
			<g>
				<polygon class="st1" points="622.3,251.2 612.1,241 602,251.2 612.1,261.4 				"/>
				<polygon class="st2" points="612.6,241.5 602.5,231.3 592.3,241.5 602.5,251.7 				"/>
				<polygon class="st3" points="641.6,251.2 631.4,241 621.3,251.2 631.4,261.4 				"/>
				<polygon class="st1" points="631.9,241.5 621.8,231.3 611.7,241.5 621.8,251.7 				"/>
				<polygon class="st1" points="622.3,231.7 612.1,221.5 602,231.7 612.1,242 				"/>
				<polygon class="st4" points="612.6,222 602.5,211.8 592.3,222 602.5,232.2 				"/>
				<polygon class="st2" points="603,212.3 592.8,202.1 582.7,212.3 592.8,222.5 				"/>
				<polygon class="st3" points="660.9,251.2 650.7,241 640.6,251.2 650.7,261.4 				"/>
				<polygon class="st5" points="651.2,241.5 641.1,231.3 631,241.5 641.1,251.7 				"/>
				<polygon class="st3" points="641.6,231.7 631.4,221.5 621.3,231.7 631.4,242 				"/>
				<polygon class="st6" points="631.9,222 621.8,211.8 611.7,222 621.8,232.2 				"/>
				<polygon class="st6" points="622.3,212.3 612.1,202.1 602,212.3 612.1,222.5 				"/>
				<polygon class="st4" points="612.6,202.6 602.5,192.3 592.3,202.6 602.5,212.8 				"/>
				<polygon class="st7" points="680.2,251.2 670,241 659.9,251.2 670,261.4 				"/>
				<polygon class="st3" points="670.5,241.5 660.4,231.3 650.2,241.5 660.4,251.7 				"/>
				<polygon class="st3" points="660.9,231.7 650.7,221.5 640.6,231.7 650.7,242 				"/>
				<polygon class="st1" points="651.2,222 641.1,211.8 631,222 641.1,232.2 				"/>
				<polygon class="st6" points="641.6,212.3 631.4,202.1 621.3,212.3 631.4,222.5 				"/>
				<polygon class="st6" points="631.9,202.6 621.8,192.3 611.7,202.6 621.8,212.8 				"/>
				<polygon class="st6" points="622.3,192.8 612.1,182.6 602,192.8 612.1,203 				"/>
				<polygon class="st4" points="612.6,183.1 602.5,172.9 592.3,183.1 602.5,193.3 				"/>
				<polygon class="st7" points="699.5,251.2 689.3,241 679.2,251.2 689.3,261.4 				"/>
				<polygon class="st7" points="689.8,241.5 679.7,231.3 669.5,241.5 679.7,251.7 				"/>
				<polygon class="st7" points="680.2,231.7 670,221.5 659.9,231.7 670,242 				"/>
				<polygon class="st8" points="670.5,222 660.4,211.8 650.2,222 660.4,232.2 				"/>
				<polygon class="st9" points="660.9,212.3 650.7,202.1 640.6,212.3 650.7,222.5 				"/>
				<polygon class="st9" points="651.2,202.6 641.1,192.3 631,202.6 641.1,212.8 				"/>
				<polygon class="st6" points="641.6,192.8 631.4,182.6 621.3,192.8 631.4,203 				"/>
				<polygon class="st6" points="631.9,183.1 621.8,172.9 611.7,183.1 621.8,193.3 				"/>
				<polygon class="st6" points="622.3,173.4 612.1,163.2 602,173.4 612.1,183.6 				"/>
				<polygon class="st6" points="612.6,163.6 602.5,153.4 592.3,163.6 602.5,173.9 				"/>
				<polygon class="st2" points="603,153.9 592.8,143.7 582.7,153.9 592.8,164.1 				"/>
				<polygon class="st10" points="718.8,251.2 708.6,241 698.5,251.2 708.6,261.4 				"/>
				<polygon class="st11" points="709.1,241.5 699,231.3 688.8,241.5 699,251.7 				"/>
				<polygon class="st7" points="699.5,231.7 689.3,221.5 679.2,231.7 689.3,242 				"/>
				<polygon class="st7" points="689.8,222 679.7,211.8 669.5,222 679.7,232.2 				"/>
				<polygon class="st7" points="680.2,212.3 670,202.1 659.9,212.3 670,222.5 				"/>
				<polygon class="st12" points="670.5,202.6 660.4,192.3 650.2,202.6 660.4,212.8 				"/>
				<polygon class="st12" points="660.9,192.8 650.7,182.6 640.6,192.8 650.7,203 				"/>
				<polygon class="st8" points="651.2,183.1 641.1,172.9 631,183.1 641.1,193.3 				"/>
				<polygon class="st6" points="641.6,173.4 631.4,163.2 621.3,173.4 631.4,183.6 				"/>
				<polygon class="st6" points="631.9,163.6 621.8,153.4 611.7,163.6 621.8,173.9 				"/>
				<polygon class="st8" points="622.3,153.9 612.1,143.7 602,153.9 612.1,164.1 				"/>
				<polygon class="st6" points="612.6,144.2 602.5,133.9 592.3,144.2 602.5,154.4 				"/>
				<polygon class="st13" points="738.1,251.2 727.9,241 717.8,251.2 727.9,261.4 				"/>
				<polygon class="st10" points="728.4,241.5 718.3,231.3 708.1,241.5 718.3,251.7 				"/>
				<polygon class="st10" points="718.8,231.7 708.6,221.5 698.5,231.7 708.6,242 				"/>
				<polygon class="st10" points="709.1,222 699,211.8 688.8,222 699,232.2 				"/>
				<polygon class="st11" points="699.5,212.3 689.3,202.1 679.2,212.3 689.3,222.5 				"/>
				<polygon class="st14" points="689.8,202.6 679.7,192.3 669.5,202.6 679.7,212.8 				"/>
				<polygon class="st15" points="680.2,192.8 670,182.6 659.9,192.8 670,203 				"/>
				<polygon class="st16" points="670.5,183.1 660.4,172.9 650.2,183.1 660.4,193.3 				"/>
				<polygon class="st12" points="660.9,173.4 650.7,163.2 640.6,173.4 650.7,183.6 				"/>
				<polygon class="st5" points="651.2,163.6 641.1,153.4 631,163.6 641.1,173.9 				"/>
				<polygon class="st17" points="641.6,153.9 631.4,143.7 621.3,153.9 631.4,164.1 				"/>
				<polygon class="st3" points="631.9,144.2 621.8,133.9 611.7,144.2 621.8,154.4 				"/>
				<polygon class="st3" points="622.3,134.4 612.1,124.2 602,134.4 612.1,144.6 				"/>
				<polygon class="st4" points="612.6,124.7 602.5,114.5 592.3,124.7 602.5,134.9 				"/>
				<polygon class="st2" points="603,115 592.8,104.8 582.7,115 592.8,125.2 				"/>
				<polygon class="st14" points="757.4,251.2 747.2,241 737.1,251.2 747.2,261.4 				"/>
				<polygon class="st18" points="747.7,241.5 737.6,231.3 727.5,241.5 737.6,251.7 				"/>
				<polygon class="st13" points="738.1,231.7 727.9,221.5 717.8,231.7 727.9,242 				"/>
				<polygon class="st19" points="728.4,222 718.3,211.8 708.1,222 718.3,232.2 				"/>
				<polygon class="st20" points="718.8,212.3 708.6,202.1 698.5,212.3 708.6,222.5 				"/>
				<polygon class="st21" points="709.1,202.6 699,192.3 688.8,202.6 699,212.8 				"/>
				<polygon class="st14" points="699.5,192.8 689.3,182.6 679.2,192.8 689.3,203 				"/>
				<polygon class="st22" points="689.8,183.1 679.7,172.9 669.5,183.1 679.7,193.3 				"/>
				<polygon class="st10" points="680.2,173.4 670,163.2 659.9,173.4 670,183.6 				"/>
				<polygon class="st12" points="670.5,163.6 660.4,153.4 650.2,163.6 660.4,173.9 				"/>
				<polygon class="st23" points="660.9,153.9 650.7,143.7 640.6,153.9 650.7,164.1 				"/>
				<polygon class="st5" points="651.2,144.2 641.1,133.9 631,144.2 641.1,154.4 				"/>
				<polygon class="st5" points="641.6,134.4 631.4,124.2 621.3,134.4 631.4,144.6 				"/>
				<polygon class="st6" points="631.9,124.7 621.8,114.5 611.7,124.7 621.8,134.9 				"/>
				<polygon class="st6" points="622.3,115 612.1,104.8 602,115 612.1,125.2 				"/>
				<polygon class="st2" points="612.6,105.2 602.5,95 592.3,105.2 602.5,115.5 				"/>
				<polygon class="st14" points="776.7,251.2 766.5,241 756.4,251.2 766.5,261.4 				"/>
				<polygon class="st14" points="767,241.5 756.9,231.3 746.7,241.5 756.9,251.7 				"/>
				<polygon class="st14" points="757.4,231.7 747.2,221.5 737.1,231.7 747.2,242 				"/>
				<polygon class="st24" points="747.7,222 737.6,211.8 727.5,222 737.6,232.2 				"/>
				<polygon class="st19" points="738.1,212.3 727.9,202.1 717.8,212.3 727.9,222.5 				"/>
				<polygon class="st19" points="728.4,202.6 718.3,192.3 708.1,202.6 718.3,212.8 				"/>
				<polygon class="st19" points="718.8,192.8 708.6,182.6 698.5,192.8 708.6,203 				"/>
				<polygon class="st10" points="709.1,183.1 699,172.9 688.8,183.1 699,193.3 				"/>
				<polygon class="st25" points="699.5,173.4 689.3,163.2 679.2,173.4 689.3,183.6 				"/>
				<polygon class="st25" points="689.8,163.6 679.7,153.4 669.5,163.6 679.7,173.9 				"/>
				<polygon class="st26" points="680.2,153.9 670,143.7 659.9,153.9 670,164.1 				"/>
				<polygon class="st9" points="670.5,144.2 660.4,133.9 650.2,144.2 660.4,154.4 				"/>
				<polygon class="st9" points="660.9,134.4 650.7,124.2 640.6,134.4 650.7,144.6 				"/>
				<polygon class="st7" points="651.2,124.7 641.1,114.5 631,124.7 641.1,134.9 				"/>
				<polygon class="st25" points="641.6,115 631.4,104.8 621.3,115 631.4,125.2 				"/>
				<polygon class="st9" points="631.9,105.2 621.8,95 611.7,105.2 621.8,115.5 				"/>
				<polygon class="st9" points="622.3,95.5 612.1,85.3 602,95.5 612.1,105.7 				"/>
				<polygon class="st2" points="612.6,85.8 602.5,75.5 592.3,85.8 602.5,96 				"/>
				<polygon class="st14" points="776.7,231.7 766.5,221.5 756.4,231.7 766.5,242 				"/>
				<polygon class="st27" points="767,222 756.9,211.8 746.7,222 756.9,232.2 				"/>
				<polygon class="st28" points="757.4,212.3 747.2,202.1 737.1,212.3 747.2,222.5 				"/>
				<polygon class="st29" points="747.7,202.6 737.6,192.3 727.5,202.6 737.6,212.8 				"/>
				<polygon class="st30" points="738.1,192.8 727.9,182.6 717.8,192.8 727.9,203 				"/>
				<polygon class="st31" points="728.4,183.1 718.3,172.9 708.1,183.1 718.3,193.3 				"/>
				<polygon class="st19" points="718.8,173.4 708.6,163.2 698.5,173.4 708.6,183.6 				"/>
				<polygon class="st19" points="709.1,163.6 699,153.4 688.8,163.6 699,173.9 				"/>
				<polygon class="st25" points="699.5,153.9 689.3,143.7 679.2,153.9 689.3,164.1 				"/>
				<polygon class="st26" points="689.8,144.2 679.7,133.9 669.5,144.2 679.7,154.4 				"/>
				<polygon class="st15" points="680.2,134.4 670,124.2 659.9,134.4 670,144.6 				"/>
				<polygon class="st16" points="670.5,124.7 660.4,114.5 650.2,124.7 660.4,134.9 				"/>
				<polygon class="st26" points="660.9,115 650.7,104.8 640.6,115 650.7,125.2 				"/>
				<polygon class="st25" points="651.2,105.2 641.1,95 631,105.2 641.1,115.5 				"/>
				<polygon class="st26" points="641.6,95.5 631.4,85.3 621.3,95.5 631.4,105.7 				"/>
				<polygon class="st8" points="631.9,85.8 621.8,75.5 611.7,85.8 621.8,96 				"/>
				<polygon class="st1" points="622.3,76 612.1,65.8 602,76 612.1,86.3 				"/>
				<polygon class="st28" points="776.7,212.3 766.5,202.1 756.4,212.3 766.5,222.5 				"/>
				<polygon class="st32" points="767,202.6 756.9,192.3 746.7,202.6 756.9,212.8 				"/>
				<polygon class="st32" points="757.4,192.8 747.2,182.6 737.1,192.8 747.2,203 				"/>
				<polygon class="st13" points="747.7,183.1 737.6,172.9 727.5,183.1 737.6,193.3 				"/>
				<polygon class="st24" points="738.1,173.4 727.9,163.2 717.8,173.4 727.9,183.6 				"/>
				<polygon class="st19" points="728.4,163.6 718.3,153.4 708.1,163.6 718.3,173.9 				"/>
				<polygon class="st33" points="718.8,153.9 708.6,143.7 698.5,153.9 708.6,164.1 				"/>
				<polygon class="st33" points="709.1,144.2 699,133.9 688.8,144.2 699,154.4 				"/>
				<polygon class="st26" points="699.5,134.4 689.3,124.2 679.2,134.4 689.3,144.6 				"/>
				<polygon class="st34" points="689.8,124.7 679.7,114.5 669.5,124.7 679.7,134.9 				"/>
				<polygon class="st23" points="680.2,115 670,104.8 659.9,115 670,125.2 				"/>
				<polygon class="st12" points="670.5,105.2 660.4,95 650.2,105.2 660.4,115.5 				"/>
				<polygon class="st12" points="660.9,95.5 650.7,85.3 640.6,95.5 650.7,105.7 				"/>
				<polygon class="st25" points="651.2,85.8 641.1,75.5 631,85.8 641.1,96 				"/>
				<polygon class="st34" points="641.6,76 631.4,65.8 621.3,76 631.4,86.3 				"/>
				<polygon class="st1" points="631.9,66.3 621.8,56.1 611.7,66.3 621.8,76.5 				"/>
				<polygon class="st2" points="622.3,56.6 612.1,46.4 602,56.6 612.1,66.8 				"/>
				<polygon class="st32" points="776.7,192.8 766.5,182.6 756.4,192.8 766.5,203 				"/>
				<polygon class="st35" points="767,183.1 756.9,172.9 746.7,183.1 756.9,193.3 				"/>
				<polygon class="st36" points="757.4,173.4 747.2,163.2 737.1,173.4 747.2,183.6 				"/>
				<polygon class="st37" points="747.7,163.6 737.6,153.4 727.5,163.6 737.6,173.9 				"/>
				<polygon class="st31" points="738.1,153.9 727.9,143.7 717.8,153.9 727.9,164.1 				"/>
				<polygon class="st38" points="728.4,144.2 718.3,133.9 708.1,144.2 718.3,154.4 				"/>
				<polygon class="st38" points="718.8,134.4 708.6,124.2 698.5,134.4 708.6,144.6 				"/>
				<polygon class="st26" points="709.1,124.7 699,114.5 688.8,124.7 699,134.9 				"/>
				<polygon class="st12" points="699.5,115 689.3,104.8 679.2,115 689.3,125.2 				"/>
				<polygon class="st25" points="689.8,105.2 679.7,95 669.5,105.2 679.7,115.5 				"/>
				<polygon class="st39" points="680.2,95.5 670,85.3 659.9,95.5 670,105.7 				"/>
				<polygon class="st26" points="670.5,85.8 660.4,75.5 650.2,85.8 660.4,96 				"/>
				<polygon class="st23" points="660.9,76 650.7,65.8 640.6,76 650.7,86.3 				"/>
				<polygon class="st12" points="651.2,66.3 641.1,56.1 631,66.3 641.1,76.5 				"/>
				<polygon class="st3" points="641.6,56.6 631.4,46.4 621.3,56.6 631.4,66.8 				"/>
				<polygon class="st36" points="776.7,173.4 766.5,163.2 756.4,173.4 766.5,183.6 				"/>
				<polygon class="st36" points="767,163.6 756.9,153.4 746.7,163.6 756.9,173.9 				"/>
				<polygon class="st28" points="757.4,153.9 747.2,143.7 737.1,153.9 747.2,164.1 				"/>
				<polygon class="st38" points="747.7,144.2 737.6,133.9 727.5,144.2 737.6,154.4 				"/>
				<polygon class="st20" points="738.1,134.4 727.9,124.2 717.8,134.4 727.9,144.6 				"/>
				<polygon class="st40" points="728.4,124.7 718.3,114.5 708.1,124.7 718.3,134.9 				"/>
				<polygon class="st32" points="718.8,115 708.6,104.8 698.5,115 708.6,125.2 				"/>
				<polygon class="st41" points="709.1,105.2 699,95 688.8,105.2 699,115.5 				"/>
				<polygon class="st25" points="699.5,95.5 689.3,85.3 679.2,95.5 689.3,105.7 				"/>
				<polygon class="st34" points="689.8,85.8 679.7,75.5 669.5,85.8 679.7,96 				"/>
				<polygon class="st42" points="680.2,76 670,65.8 659.9,76 670,86.3 				"/>
				<polygon class="st23" points="670.5,66.3 660.4,56.1 650.2,66.3 660.4,76.5 				"/>
				<polygon class="st15" points="660.9,56.6 650.7,46.4 640.6,56.6 650.7,66.8 				"/>
				<polygon class="st3" points="651.2,46.8 641.1,36.6 631,46.8 641.1,57.1 				"/>
				<polygon class="st28" points="776.7,153.9 766.5,143.7 756.4,153.9 766.5,164.1 				"/>
				<polygon class="st22" points="767,144.2 756.9,133.9 746.7,144.2 756.9,154.4 				"/>
				<polygon class="st22" points="757.4,134.4 747.2,124.2 737.1,134.4 747.2,144.6 				"/>
				<polygon class="st43" points="747.7,124.7 737.6,114.5 727.5,124.7 737.6,134.9 				"/>
				<polygon class="st44" points="738.1,115 727.9,104.8 717.8,115 727.9,125.2 				"/>
				<polygon class="st20" points="728.4,105.2 718.3,95 708.1,105.2 718.3,115.5 				"/>
				<polygon class="st20" points="718.8,95.5 708.6,85.3 698.5,95.5 708.6,105.7 				"/>
				<polygon class="st21" points="709.1,85.8 699,75.5 688.8,85.8 699,96 				"/>
				<polygon class="st11" points="699.5,76 689.3,65.8 679.2,76 689.3,86.3 				"/>
				<polygon class="st11" points="689.8,66.3 679.7,56.1 669.5,66.3 679.7,76.5 				"/>
				<polygon class="st38" points="680.2,56.6 670,46.4 659.9,56.6 670,66.8 				"/>
				<polygon class="st9" points="670.5,46.8 660.4,36.6 650.2,46.8 660.4,57.1 				"/>
				<polygon class="st6" points="660.9,37.1 650.7,26.9 640.6,37.1 650.7,47.3 				"/>
				<polygon class="st2" points="651.2,27.4 641.1,17.2 631,27.4 641.1,37.6 				"/>
				<polygon class="st22" points="776.7,134.4 766.5,124.2 756.4,134.4 766.5,144.6 				"/>
				<polygon class="st38" points="767,124.7 756.9,114.5 746.7,124.7 756.9,134.9 				"/>
				<polygon class="st38" points="757.4,115 747.2,104.8 737.1,115 747.2,125.2 				"/>
				<polygon class="st45" points="747.7,105.2 737.6,95 727.5,105.2 737.6,115.5 				"/>
				<polygon class="st20" points="738.1,95.5 727.9,85.3 717.8,95.5 727.9,105.7 				"/>
				<polygon class="st38" points="728.4,85.8 718.3,75.5 708.1,85.8 718.3,96 				"/>
				<polygon class="st38" points="718.8,76 708.6,65.8 698.5,76 708.6,86.3 				"/>
				<polygon class="st25" points="709.1,66.3 699,56.1 688.8,66.3 699,76.5 				"/>
				<polygon class="st43" points="699.5,56.6 689.3,46.4 679.2,56.6 689.3,66.8 				"/>
				<polygon class="st25" points="689.8,46.8 679.7,36.6 669.5,46.8 679.7,57.1 				"/>
				<polygon class="st17" points="680.2,37.1 670,26.9 659.9,37.1 670,47.3 				"/>
				<polygon class="st6" points="670.5,27.4 660.4,17.2 650.2,27.4 660.4,37.6 				"/>
				<polygon class="st4" points="660.9,17.6 650.7,7.4 640.6,17.6 650.7,27.9 				"/>
				<polygon class="st38" points="776.7,115 766.5,104.8 756.4,115 766.5,125.2 				"/>
				<polygon class="st25" points="767,105.2 756.9,95 746.7,105.2 756.9,115.5 				"/>
				<polygon class="st25" points="757.4,95.5 747.2,85.3 737.1,95.5 747.2,105.7 				"/>
				<polygon class="st46" points="747.7,85.8 737.6,75.5 727.5,85.8 737.6,96 				"/>
				<polygon class="st31" points="738.1,76 727.9,65.8 717.8,76 727.9,86.3 				"/>
				<polygon class="st38" points="728.4,66.3 718.3,56.1 708.1,66.3 718.3,76.5 				"/>
				<polygon class="st11" points="718.8,56.6 708.6,46.4 698.5,56.6 708.6,66.8 				"/>
				<polygon class="st12" points="709.1,46.8 699,36.6 688.8,46.8 699,57.1 				"/>
				<polygon class="st5" points="699.5,37.1 689.3,26.9 679.2,37.1 689.3,47.3 				"/>
				<polygon class="st5" points="689.8,27.4 679.7,17.2 669.5,27.4 679.7,37.6 				"/>
				<polygon class="st1" points="680.2,17.6 670,7.4 659.9,17.6 670,27.9 				"/>
				<polygon class="st25" points="776.7,95.5 766.5,85.3 756.4,95.5 766.5,105.7 				"/>
				<polygon class="st15" points="767,85.8 756.9,75.5 746.7,85.8 756.9,96 				"/>
				<polygon class="st6" points="757.4,76 747.2,65.8 737.1,76 747.2,86.3 				"/>
				<polygon class="st47" points="747.7,66.3 737.6,56.1 727.5,66.3 737.6,76.5 				"/>
				<polygon class="st8" points="738.1,56.6 727.9,46.4 717.8,56.6 727.9,66.8 				"/>
				<polygon class="st6" points="728.4,46.8 718.3,36.6 708.1,46.8 718.3,57.1 				"/>
				<polygon class="st4" points="718.8,37.1 708.6,26.9 698.5,37.1 708.6,47.3 				"/>
				<polygon class="st6" points="709.1,27.4 699,17.2 688.8,27.4 699,37.6 				"/>
				<polygon class="st6" points="699.5,17.6 689.3,7.4 679.2,17.6 689.3,27.9 				"/>
				<polygon class="st6" points="776.7,76 766.5,65.8 756.4,76 766.5,86.3 				"/>
				<polygon class="st6" points="767,66.3 756.9,56.1 746.7,66.3 756.9,76.5 				"/>
				<polygon class="st4" points="728.4,27.4 718.3,17.2 708.1,27.4 718.3,37.6 				"/>
			</g>
		</g>
	</g>
</g>
<sodipodi:namedview  bordercolor="#666666" borderopacity="1" gridtolerance="10" guidetolerance="10" id="namedview3070" inkscape:current-layer="Layer_1-2" inkscape:cx="306.99455" inkscape:cy="130.80733" inkscape:pageopacity="0" inkscape:pageshadow="2" inkscape:window-height="905" inkscape:window-maximized="0" inkscape:window-width="1751" inkscape:window-x="100" inkscape:window-y="32" inkscape:zoom="1.8307089" objecttolerance="10" pagecolor="#ffffff" showgrid="false">
	</sodipodi:namedview>
<title  id="title332">Asset 5</title>
<linearGradient id="line776_1_" gradientUnits="userSpaceOnUse" x1="192.47" y1="239.25" x2="192.72" y2="239.25" gradientTransform="matrix(1 0 0 -1 0 240)">
	<stop  offset="0" style="stop-color:#BBA38A"/>
	<stop  offset="1" style="stop-color:#795649"/>
</linearGradient>
<line id="line776" class="st48" x1="192.6" y1="0.7" x2="192.6" y2="0.8"/>
<line class="st49" x1="391.7" y1="241" x2="391.7" y2="27.8"/>
<path id="rect2394_1_" class="st50" d="M441,70.8h285.4c5.5,0,10,4.5,10,10v106.4c0,5.5-4.5,10-10,10H441c-5.5,0-10-4.5-10-10V80.8
	C431,75.3,435.5,70.8,441,70.8z"/>
</svg>
