<?xml version="1.0" encoding="utf-8"?>
<!-- Generator: Adobe Illustrator 24.0.1, SVG Export Plug-In . SVG Version: 6.00 Build 0)  -->
<svg version="1.1"
	 id="svg3068" xmlns:cc="http://creativecommons.org/ns#" xmlns:dc="http://purl.org/dc/elements/1.1/" xmlns:inkscape="http://www.inkscape.org/namespaces/inkscape" xmlns:rdf="http://www.w3.org/1999/02/22-rdf-syntax-ns#" xmlns:sodipodi="http://sodipodi.sourceforge.net/DTD/sodipodi-0.dtd" xmlns:svg="http://www.w3.org/2000/svg"
	 xmlns="http://www.w3.org/2000/svg" xmlns:xlink="http://www.w3.org/1999/xlink" x="0px" y="0px" viewBox="0 0 783.3 268.9"
	 style="enable-background:new 0 0 783.3 268.9;" xml:space="preserve">
<style type="text/css">
	.st0{fill:#FBFBFB;stroke:#575756;stroke-width:0.25;stroke-miterlimit:10;}
	.st1{fill:none;stroke:url(#line776_1_);stroke-width:0.3;stroke-miterlimit:10;}
	.st2{fill:none;stroke:#575756;stroke-width:0.25;stroke-miterlimit:10;}
	.st3{fill:#FFFFFF;stroke:#575756;stroke-width:0.25;stroke-miterlimit:10;}
</style>
<path class="st0" d="M766.7,261.9h-750c-5.5,0-10-4.5-10-10v-235c0-5.5,4.5-10,10-10h750c5.5,0,10,4.5,10,10v235
	C776.7,257.5,772.2,261.9,766.7,261.9z"/>
<sodipodi:namedview  bordercolor="#666666" borderopacity="1" gridtolerance="10" guidetolerance="10" id="namedview3070" inkscape:current-layer="Layer_1-2" inkscape:cx="306.99455" inkscape:cy="130.80733" inkscape:pageopacity="0" inkscape:pageshadow="2" inkscape:window-height="905" inkscape:window-maximized="0" inkscape:window-width="1751" inkscape:window-x="100" inkscape:window-y="32" inkscape:zoom="1.8307089" objecttolerance="10" pagecolor="#ffffff" showgrid="false">
	</sodipodi:namedview>
<title  id="title332">Asset 5</title>
<linearGradient id="line776_1_" gradientUnits="userSpaceOnUse" x1="192.47" y1="60.75" x2="192.72" y2="60.75" gradientTransform="matrix(1 0 0 1 0 -60)">
	<stop  offset="0" style="stop-color:#BBA38A"/>
	<stop  offset="1" style="stop-color:#795649"/>
</linearGradient>
<line id="line776" class="st1" x1="192.6" y1="0.7" x2="192.6" y2="0.8"/>
<line class="st2" x1="391" y1="240.6" x2="391" y2="27.4"/>
<path id="rect2394_1_" class="st3" d="M441,70.8h285.7c5.5,0,10,4.5,10,10v106.4c0,5.5-4.5,10-10,10H441c-5.5,0-10-4.5-10-10V80.8
	C431,75.3,435.5,70.8,441,70.8z"/>
</svg>
